<svg width="60" height="60" viewBox="0 0 60 60" fill="none" xmlns="http://www.w3.org/2000/svg">
<rect width="60" height="60" rx="30" fill="#42445A"/>
<path d="M18 23.1C18 21.9408 18.9408 21 20.1 21H36.3C37.4592 21 38.4 21.9408 38.4 23.1V33.3C38.4 33.857 38.1788 34.3911 37.7849 34.7849C37.3911 35.1788 36.857 35.4 36.3 35.4H20.1C19.543 35.4 19.0089 35.1788 18.6151 34.7849C18.2212 34.3911 18 33.857 18 33.3V23.1ZM21.6 22.5V23.7C21.6 23.9387 21.5052 24.1676 21.3364 24.3364C21.1676 24.5052 20.9387 24.6 20.7 24.6H19.5V26.4H20.7C21.0546 26.4 21.4057 26.3302 21.7332 26.1945C22.0608 26.0588 22.3585 25.8599 22.6092 25.6092C22.8599 25.3585 23.0588 25.0608 23.1945 24.7332C23.3302 24.4057 23.4 24.0546 23.4 23.7V22.5H21.6ZM28.2 31.2C28.9161 31.2 29.6028 30.9155 30.1092 30.4092C30.6155 29.9028 30.9 29.2161 30.9 28.5C30.9 27.7839 30.6155 27.0972 30.1092 26.5908C29.6028 26.0845 28.9161 25.8 28.2 25.8C27.4839 25.8 26.7972 26.0845 26.2908 26.5908C25.7845 27.0972 25.5 27.7839 25.5 28.5C25.5 29.2161 25.7845 29.9028 26.2908 30.4092C26.7972 30.9155 27.4839 31.2 28.2 31.2ZM19.5 31.8H20.7C20.9387 31.8 21.1676 31.8948 21.3364 32.0636C21.5052 32.2324 21.6 32.4613 21.6 32.7V33.9H23.4V32.7C23.4 31.9839 23.1155 31.2972 22.6092 30.7908C22.1028 30.2845 21.4161 30 20.7 30H19.5V31.8ZM34.8 32.7C34.8 32.4613 34.8948 32.2324 35.0636 32.0636C35.2324 31.8948 35.4613 31.8 35.7 31.8H36.9V30H35.7C34.9839 30 34.2972 30.2845 33.7908 30.7908C33.2845 31.2972 33 31.9839 33 32.7V33.9H34.8V32.7ZM34.8 23.7V22.5H33V23.7C33 24.0546 33.0698 24.4057 33.2055 24.7332C33.3412 25.0608 33.5401 25.3585 33.7908 25.6092C34.2972 26.1155 34.9839 26.4 35.7 26.4H36.9V24.6H35.7C35.4613 24.6 35.2324 24.5052 35.0636 24.3364C34.8948 24.1676 34.8 23.9387 34.8 23.7ZM20.8812 37.2C21.1972 37.7475 21.6518 38.2021 22.1993 38.5181C22.7468 38.8341 23.3679 39.0003 24 39H36.3C37.0485 39 37.7897 38.8526 38.4813 38.5661C39.1729 38.2797 39.8012 37.8598 40.3305 37.3305C40.8598 36.8012 41.2797 36.1729 41.5661 35.4813C41.8526 34.7897 42 34.0485 42 33.3V27C42.0002 26.3679 41.8339 25.7469 41.518 25.1994C41.202 24.6519 40.7474 24.1973 40.2 23.8812V33.3C40.2 34.3343 39.7891 35.3263 39.0577 36.0577C38.3263 36.7891 37.3343 37.2 36.3 37.2H20.8812Z" fill="#FFFAF7"/>
</svg>
