<svg width="60" height="60" viewBox="0 0 60 60" fill="none" xmlns="http://www.w3.org/2000/svg">
<rect width="60" height="60" rx="30" fill="#42445A"/>
<path d="M29.6 25.2V18H22.4C21.7635 18 21.153 18.2529 20.7029 18.7029C20.2529 19.153 20 19.7635 20 20.4V39.6C20 40.2365 20.2529 40.847 20.7029 41.2971C21.153 41.7471 21.7635 42 22.4 42H36.8C37.4365 42 38.047 41.7471 38.4971 41.2971C38.9471 40.847 39.2 40.2365 39.2 39.6V27.6H32C31.3635 27.6 30.753 27.3471 30.3029 26.8971C29.8529 26.447 29.6 25.8365 29.6 25.2ZM23.6 30.3C23.6 30.0613 23.6948 29.8324 23.8636 29.6636C24.0324 29.4948 24.2613 29.4 24.5 29.4C24.7387 29.4 24.9676 29.4948 25.1364 29.6636C25.3052 29.8324 25.4 30.0613 25.4 30.3C25.4 30.5387 25.3052 30.7676 25.1364 30.9364C24.9676 31.1052 24.7387 31.2 24.5 31.2C24.2613 31.2 24.0324 31.1052 23.8636 30.9364C23.6948 30.7676 23.6 30.5387 23.6 30.3ZM23.6 33.9C23.6 33.6613 23.6948 33.4324 23.8636 33.2636C24.0324 33.0948 24.2613 33 24.5 33C24.7387 33 24.9676 33.0948 25.1364 33.2636C25.3052 33.4324 25.4 33.6613 25.4 33.9C25.4 34.1387 25.3052 34.3676 25.1364 34.5364C24.9676 34.7052 24.7387 34.8 24.5 34.8C24.2613 34.8 24.0324 34.7052 23.8636 34.5364C23.6948 34.3676 23.6 34.1387 23.6 33.9ZM23.6 37.5C23.6 37.2613 23.6948 37.0324 23.8636 36.8636C24.0324 36.6948 24.2613 36.6 24.5 36.6C24.7387 36.6 24.9676 36.6948 25.1364 36.8636C25.3052 37.0324 25.4 37.2613 25.4 37.5C25.4 37.7387 25.3052 37.9676 25.1364 38.1364C24.9676 38.3052 24.7387 38.4 24.5 38.4C24.2613 38.4 24.0324 38.3052 23.8636 38.1364C23.6948 37.9676 23.6 37.7387 23.6 37.5ZM27.2 30.3C27.2 30.0613 27.2948 29.8324 27.4636 29.6636C27.6324 29.4948 27.8613 29.4 28.1 29.4H34.7C34.9387 29.4 35.1676 29.4948 35.3364 29.6636C35.5052 29.8324 35.6 30.0613 35.6 30.3C35.6 30.5387 35.5052 30.7676 35.3364 30.9364C35.1676 31.1052 34.9387 31.2 34.7 31.2H28.1C27.8613 31.2 27.6324 31.1052 27.4636 30.9364C27.2948 30.7676 27.2 30.5387 27.2 30.3ZM27.2 33.9C27.2 33.6613 27.2948 33.4324 27.4636 33.2636C27.6324 33.0948 27.8613 33 28.1 33H34.7C34.9387 33 35.1676 33.0948 35.3364 33.2636C35.5052 33.4324 35.6 33.6613 35.6 33.9C35.6 34.1387 35.5052 34.3676 35.3364 34.5364C35.1676 34.7052 34.9387 34.8 34.7 34.8H28.1C27.8613 34.8 27.6324 34.7052 27.4636 34.5364C27.2948 34.3676 27.2 34.1387 27.2 33.9ZM27.2 37.5C27.2 37.2613 27.2948 37.0324 27.4636 36.8636C27.6324 36.6948 27.8613 36.6 28.1 36.6H34.7C34.9387 36.6 35.1676 36.6948 35.3364 36.8636C35.5052 37.0324 35.6 37.2613 35.6 37.5C35.6 37.7387 35.5052 37.9676 35.3364 38.1364C35.1676 38.3052 34.9387 38.4 34.7 38.4H28.1C27.8613 38.4 27.6324 38.3052 27.4636 38.1364C27.2948 37.9676 27.2 37.7387 27.2 37.5ZM31.4 25.2V18.6L38.6 25.8H32C31.8409 25.8 31.6883 25.7368 31.5757 25.6243C31.4632 25.5117 31.4 25.3591 31.4 25.2Z" fill="#FFFAF7"/>
</svg>
